PathFileType	4	(X/Y/Z)	/Users/itak/Documents/Research/Walk-IL/dataset/trc/00356_00011.trc
DataRate	CameraRate	NumFrames	NumMarkers	Units	OrigDataRate	OrigDataStartFrame	OrigNumFrames
100.000000	100.000000	4	54	mm	100.000000	91	729
Frame#	Time	RPSI			LPSI			STRN			T10			C7			CLAV			RBAK			LBAK			LSHO			LUPA			LAEL			LAOL			LWTS			LWPS			LFRA			LIFD			LHPS			LHTS			RSHO			RUPA			RAEL			RAOL			RWTS			RWPS			RFRA			RIFD			RHTS			RHPS			RBHD			LFHD			RFHD			LBHD			LHIP			RHIP			RASI			LASI			LKNE			LTHI			LANK			LTIP			LTOE			LMT1			LMT5			LHEE			RKNE			RANK			RTIP			RTOE			RMT1			RMT5			RHEE			L3			RTHI			*53			
		X1	Y1	Z1	X2	Y2	Z2	X3	Y3	Z3	X4	Y4	Z4	X5	Y5	Z5	X6	Y6	Z6	X7	Y7	Z7	X8	Y8	Z8	X9	Y9	Z9	X10	Y10	Z10	X11	Y11	Z11	X12	Y12	Z12	X13	Y13	Z13	X14	Y14	Z14	X15	Y15	Z15	X16	Y16	Z16	X17	Y17	Z17	X18	Y18	Z18	X19	Y19	Z19	X20	Y20	Z20	X21	Y21	Z21	X22	Y22	Z22	X23	Y23	Z23	X24	Y24	Z24	X25	Y25	Z25	X26	Y26	Z26	X27	Y27	Z27	X28	Y28	Z28	X29	Y29	Z29	X30	Y30	Z30	X31	Y31	Z31	X32	Y32	Z32	X33	Y33	Z33	X34	Y34	Z34	X35	Y35	Z35	X36	Y36	Z36	X37	Y37	Z37	X38	Y38	Z38	X39	Y39	Z39	X40	Y40	Z40	X41	Y41	Z41	X42	Y42	Z42	X43	Y43	Z43	X44	Y44	Z44	X45	Y45	Z45	X46	Y46	Z46	X47	Y47	Z47	X48	Y48	Z48	X49	Y49	Z49	X50	Y50	Z50	X51	Y51	Z51	X52	Y52	Z52	X53	Y53	Z53	X54	Y54	Z54	

92	0.91	285.4669799804688	966.0888061523438	913.885009765625	288.6494750976562	963.2572021484375	1040.874389648438	65.11277008056641	1207.568115234375	970.664794921875	305.5382080078125	1137.511474609375	982.4002075195312	265.9407348632812	1385.735595703125	995.78466796875	107.5998840332031	1333.969482421875	976.1141967773438	317.7308959960938	1245.419921875	930.7322998046875	264.8650207519531	1347.806274414062	1098.027099609375	175.8018341064453	1369.88525390625	1145.657104492188	179.0005645751953	1249.33837890625	1215.951782226562	137.5818176269531	1048.065063476562	1233.23095703125	203.0249176025391	1025.720458984375	1184.7255859375	9.363946914672852	825.0618286132812	1173.936889648438	42.4246940612793	805.349853515625	1231.75	106.6326675415039	946.0700073242188	1237.982666015625	-21.01650619506836	672.217529296875	1156.330688476562	33.29563140869141	734.14794921875	1221.82861328125	-19.31218719482422	750.958740234375	1186.539428710938	223.2171325683594	1373.103881835938	827.3543701171875	239.0425415039062	1308.114501953125	764.9390258789062	231.5092926025391	1040.80419921875	725.3580322265625	265.7447509765625	1030.846435546875	813.3834838867188	104.4689178466797	821.3012084960938	758.144287109375	146.1971282958984	802.549560546875	696.8145751953125	204.8829498291016	974.0792236328125	713.4456176757812	80.49555969238281	650.796142578125	752.876953125	67.35563659667969	723.2406005859375	740.5916137695312	123.5237731933594	719.3878173828125	698.7722778320312	243.3843688964844	1591.292602539062	904.5977783203125	57.82421112060547	1610.931030273438	999.9837646484375	80.80471038818359	1606.846557617188	901.6417846679688	236.3293762207031	1591.2958984375	1050.5908203125	200.9101104736328	909.3796997070312	1145.26513671875	218.9765167236328	910.1939697265625	799.3124389648438	109.9074554443359	935.2946166992188	837.4351196289062	80.36493682861328	929.4871215820312	1076.882934570312	160.4065399169922	444.4853515625	1105.580810546875	155.3193969726562	583.2992553710938	1123.174072265625	330.7088928222656	46.06486129760742	1078.136840820312	241.5761871337891	234.9576110839844	1101.83740234375	118.1355361938477	40.6939697265625	1037.16845703125	183.8046722412109	31.11398506164551	988.6309814453125	206.3868255615234	42.75679779052734	1100.298583984375	357.3319091796875	39.41922760009766	1007.13037109375	207.0216217041016	456.720947265625	757.7161254882812	323.8178100585938	53.05145263671875	721.6950073242188	217.1840209960938	339.0025024414062	748.2979736328125	129.4577331542969	42.69798278808594	755.3965454101562	181.3955230712891	36.89382553100586	801.4627075195312	225.3336639404297	38.68768692016602	693.266357421875	371.242431640625	52.4508056640625	772.0732421875	288.9178161621094	1016.376342773438	972.6348266601562	155.9904632568359	712.0662841796875	765.3150634765625	nan	nan	nan	
93	0.92	283.8716430664062	965.8665161132812	914.1781005859375	287.1762084960938	963.1102294921875	1041.106811523438	63.80327224731445	1207.5439453125	971.0274658203125	304.478515625	1137.323608398438	982.7506103515625	264.8476867675781	1385.396850585938	996.8201293945312	106.5857086181641	1333.817749023438	976.6290283203125	316.7285461425781	1245.210205078125	931.5303955078125	263.5177917480469	1347.381591796875	1098.890747070312	174.3938598632812	1369.39306640625	1146.43896484375	177.2328033447266	1248.578002929688	1216.359741210938	135.3535919189453	1047.382934570312	1232.791015625	201.3340454101562	1025.380493164062	1184.804565429688	7.424308300018311	824.2158203125	1172.94287109375	40.43730163574219	804.441650390625	1230.819702148438	104.3921966552734	945.3754272460938	1237.29296875	-22.5230770111084	671.2869873046875	1155.235961914062	31.60209274291992	733.2708129882812	1220.67919921875	-20.69427490234375	749.6421508789062	1185.244140625	222.4939270019531	1373.178833007812	828.28369140625	238.3165893554688	1308.326904296875	765.682373046875	230.35400390625	1041.247192382812	725.4402465820312	264.6124572753906	1030.906494140625	813.3607788085938	102.726692199707	821.972412109375	757.7590942382812	144.3705291748047	803.2769165039062	696.243896484375	203.517333984375	974.663818359375	713.284423828125	78.15776824951172	651.5397338867188	751.920654296875	65.11009979248047	724.181640625	740.0048217773438	121.3440399169922	720.1880493164062	697.9521484375	242.0871887207031	1591.104614257812	905.445068359375	56.36000823974609	1610.303588867188	1000.53515625	79.47686004638672	1606.276000976562	902.2022094726562	234.8096923828125	1591.121948242188	1051.463623046875	199.4481201171875	909.2448120117188	1145.53125	217.6450805664062	909.9761352539062	799.4635620117188	108.7509307861328	935.2572021484375	837.6646118164062	78.66534423828125	929.6522216796875	1077.102783203125	158.5400848388672	444.4515380859375	1105.485961914062	152.8175506591797	582.9176635742188	1122.586181640625	330.6378784179688	46.15446853637695	1078.1787109375	240.6178131103516	234.8900756835938	1101.692504882812	118.140625	40.71601486206055	1037.060302734375	183.7875518798828	31.01834487915039	988.6162719726562	206.3347930908203	42.80747985839844	1100.241455078125	357.3124694824219	39.46339797973633	1007.16015625	204.4851989746094	456.2602844238281	759.0835571289062	323.6193237304688	53.41293716430664	722.0839233398438	215.3132171630859	338.5525207519531	749.094970703125	129.476318359375	42.75846099853516	755.505859375	181.2733459472656	36.65578460693359	801.7127075195312	225.2070770263672	38.90559768676758	693.4048461914062	371.223876953125	52.65167617797852	772.3662719726562	287.6106567382812	1016.195617675781	972.9068603515625	154.0826110839844	711.7811279296875	765.9576416015625	nan	nan	nan	
94	0.93	282.3848876953125	965.8800048828125	914.64306640625	285.6036682128906	963.0879516601562	1041.586059570312	62.48651504516602	1207.621826171875	971.3924560546875	303.3025512695312	1137.134399414062	983.3153076171875	263.7260131835938	1385.086181640625	997.8907470703125	105.5567779541016	1333.770629882812	977.1513671875	315.7097473144531	1245.06787109375	932.3713989257812	262.0888061523438	1347.032836914062	1099.799926757812	172.9364013671875	1369.057495117188	1147.212646484375	175.3714904785156	1248.017211914062	1216.790771484375	133.0224609375	1046.8935546875	1232.235473632812	199.572265625	1025.249633789062	1184.714233398438	5.42323637008667	823.494873046875	1171.776123046875	38.31459426879883	803.6871948242188	1229.777465820312	102.0408020019531	944.8886108398438	1236.48486328125	-24.13676261901855	670.5309448242188	1154.042236328125	29.84317207336426	732.5635986328125	1219.44091796875	-21.96678733825684	748.356689453125	1183.680053710938	221.8218994140625	1373.382690429688	829.3070068359375	237.6260681152344	1308.722778320312	766.4785766601562	229.2568664550781	1041.897705078125	725.600830078125	263.4710998535156	1031.171752929688	813.4337768554688	100.9788970947266	822.8268432617188	757.2760620117188	142.6448516845703	804.18408203125	695.6299438476562	202.2104034423828	975.4369506835938	713.1845703125	76.07537078857422	652.3719482421875	750.9487915039062	63.19463348388672	725.1405029296875	739.2423095703125	119.3473205566406	721.1302490234375	697.0931396484375	240.7337646484375	1590.98486328125	906.3182373046875	54.76919937133789	1609.636962890625	1001.026062011719	78.06517791748047	1605.675659179688	902.7271728515625	233.1749267578125	1591.029052734375	1052.339233398438	197.9267730712891	909.2175903320312	1146.004028320312	216.4224548339844	909.9946899414062	799.7859497070312	107.6630935668945	935.44873046875	837.972412109375	76.93463134765625	929.8441162109375	1077.33935546875	156.8892364501953	444.3823547363281	1105.43603515625	150.4123077392578	582.5208740234375	1122.051147460938	330.5906677246094	46.23831558227539	1078.187866210938	239.7617645263672	234.7917022705078	1101.564453125	118.1622924804688	40.74635696411133	1036.916748046875	183.7651977539062	30.90949058532715	988.5842895507812	206.2869873046875	42.86401748657227	1100.181640625	357.3294067382812	39.51040649414062	1007.170959472656	200.9796295166016	455.7939147949219	760.4341430664062	323.3512878417969	53.95737457275391	722.4154663085938	212.7042083740234	338.0119018554688	749.8767700195312	129.45458984375	42.77420043945312	755.617431640625	181.1278381347656	36.40642547607422	801.9686889648438	225.0128021240234	39.1502571105957	693.5332641601562	371.1171569824219	53.1234245300293	772.6046752929688	286.2632141113281	1016.097106933594	973.3932495117188	151.6511383056641	711.4465942382812	766.9381103515625	nan	nan	nan	
95	0.9400000000000001	281.0270385742188	966.0452880859375	915.2865600585938	283.9447631835938	963.1307373046875	1042.303100585938	61.18922424316406	1207.729370117188	971.7437133789062	302.0003051757812	1136.898071289062	984.1270141601562	262.5621643066406	1384.783813476562	999.0052490234375	104.491081237793	1333.771606445312	977.6853637695312	314.6707153320312	1244.957641601562	933.2801513671875	260.556640625	1346.702392578125	1100.777221679688	171.3958282470703	1368.821533203125	1147.9931640625	173.3845520019531	1247.599487304688	1217.258178710938	130.5757751464844	1046.529663085938	1231.630615234375	197.6975402832031	1025.240234375	1184.5029296875	3.32840371131897	822.8807983398438	1170.43798828125	36.00477600097656	803.0515747070312	1228.620971679688	99.55637359619141	944.546142578125	1235.59814453125	-25.90782928466797	669.9403686523438	1152.70751953125	27.95865821838379	731.983154296875	1218.085205078125	-23.19974708557129	747.1362915039062	1181.812377929688	221.1865539550781	1373.65283203125	830.4129028320312	236.986572265625	1309.234619140625	767.3392944335938	228.2516326904297	1042.673950195312	725.8159790039062	262.3412780761719	1031.559204101562	813.5990600585938	99.23788452148438	823.809814453125	756.6837158203125	141.0191497802734	805.2073364257812	694.9668579101562	201.00439453125	976.3137817382812	713.1165161132812	74.194580078125	653.2590942382812	749.94775390625	61.50817108154297	726.1203002929688	738.3512573242188	117.510498046875	722.160400390625	696.1929321289062	239.3185424804688	1590.897094726562	907.2141723632812	53.04866027832031	1608.921997070312	1001.448669433594	76.57554626464844	1605.020751953125	903.2079467773438	231.4194183349609	1591.002075195312	1053.208740234375	196.3404693603516	909.2603759765625	1146.676391601562	215.3287811279297	910.1654052734375	800.287109375	106.6418533325195	935.770751953125	838.3442993164062	75.1966552734375	929.970947265625	1077.569213867188	155.5538330078125	444.2388610839844	1105.36572265625	148.2633209228516	582.1195678710938	1121.611206054688	330.5828857421875	46.30044937133789	1078.1640625	239.0419311523438	234.6432342529297	1101.466430664062	118.2076263427734	40.79030227661133	1036.735595703125	183.7418823242188	30.79109382629395	988.5322875976562	206.2509613037109	42.92884826660156	1100.119384765625	357.397705078125	39.5389289855957	1007.16162109375	196.5160675048828	455.2633361816406	761.7340698242188	323.0223693847656	54.69548416137695	722.7141723632812	209.3773803710938	337.3531188964844	750.667724609375	129.4061889648438	42.74530029296875	755.7307739257812	180.968994140625	36.14020919799805	802.223876953125	224.7685394287109	39.43568420410156	693.6655883789062	370.916259765625	53.89968109130859	772.8223266601562	284.86767578125	1016.026672363281	974.0938110351562	148.759765625	711.0162963867188	768.162841796875	nan	nan	nan	
